<?xml version="1.0" standalone="no"?>
<!DOCTYPE svg PUBLIC "-//W3C//DTD SVG 1.1//EN" "http://www.w3.org/Graphics/SVG/1.1/DTD/svg11.dtd" >
<svg xmlns="http://www.w3.org/2000/svg">
<metadata>Generated by IcoMoon</metadata>
<defs>
<font id="icomoon" horiz-adv-x="1024">
<font-face units-per-em="1024" ascent="870.4" descent="-153.6" />
<missing-glyph horiz-adv-x="1024" />
<glyph unicode="&#x20;" horiz-adv-x="0" d="" />
<glyph unicode="&#xe800;" glyph-name="home" horiz-adv-x="950" d="M804.864 296.704v-274.432q0-15.36-11.264-25.6t-25.6-11.264h-219.136v219.136h-146.432v-219.136h-219.136q-15.36 0-25.6 11.264t-11.264 25.6v274.432q0 1.024 0 2.048t0 2.048l328.704 270.336 328.704-270.336q1.024-1.024 1.024-3.072zM931.84 336.64l-35.84-41.984q-4.096-5.12-12.288-6.144h-2.048q-7.168 0-12.288 4.096l-395.264 329.728-395.264-329.728q-7.168-4.096-13.312-4.096-7.168 1.024-12.288 6.144l-35.84 41.984q-4.096 6.144-4.096 13.312t6.144 12.288l410.624 342.016q18.432 15.36 43.008 15.36t43.008-15.36l139.264-116.736v111.616q0 8.192 5.12 13.312t13.312 5.12h109.568q8.192 0 13.312-5.12t5.12-13.312v-233.472l124.928-104.448q6.144-4.096 6.144-12.288t-4.096-13.312z" />
<glyph unicode="&#xe802;" glyph-name="cog-1" horiz-adv-x="878" d="M584.704 352q0 60.416-43.008 103.424t-103.424 43.008-103.424-43.008-43.008-103.424 43.008-103.424 103.424-43.008 103.424 43.008 43.008 103.424zM877.568 414.464v-126.976q0-7.168-4.096-13.312t-11.264-7.168l-105.472-16.384q-11.264-30.72-22.528-52.224 20.48-28.672 61.44-78.848 6.144-7.168 6.144-14.336t-5.12-13.312q-15.36-21.504-56.32-61.44t-53.248-40.96q-7.168 0-15.36 5.12l-78.848 61.44q-25.6-13.312-52.224-21.504-9.216-77.824-16.384-106.496-4.096-16.384-20.48-16.384h-126.976q-8.192 0-14.336 5.12t-6.144 12.288l-16.384 105.472q-27.648 9.216-51.2 21.504l-80.896-61.44q-6.144-5.12-14.336-5.12t-14.336 6.144q-71.68 65.536-94.208 96.256-4.096 6.144-4.096 13.312t4.096 13.312q8.192 12.288 28.672 37.888t30.72 39.936q-15.36 28.672-23.552 56.32l-104.448 15.36q-7.168 1.024-12.288 7.168t-4.096 13.312v126.976q0 7.168 4.096 13.312t11.264 7.168l106.496 16.384q8.192 26.624 22.528 52.224-22.528 32.768-61.44 78.848-6.144 7.168-6.144 13.312t5.12 13.312q15.36 20.48 56.32 61.44t54.272 40.96q7.168 0 15.36-6.144l78.848-61.44q25.6 13.312 52.224 21.504 9.216 77.824 16.384 106.496 4.096 16.384 20.48 16.384h126.976q8.192 0 14.336-5.12t6.144-12.288l16.384-105.472q27.648-9.216 51.2-21.504l80.896 61.44q5.12 5.12 13.312 5.12 7.168 0 14.336-6.144 73.728-67.584 94.208-97.28 4.096-4.096 4.096-12.288 0-7.168-4.096-13.312-8.192-12.288-28.672-37.888t-30.72-39.936q15.36-28.672 23.552-56.32l104.448-16.384q7.168-1.024 12.288-7.168t4.096-13.312z" />
<glyph unicode="&#xe803;" glyph-name="attention" d="M584.704 78.592v108.544q0 8.192-5.12 13.312t-13.312 5.12h-109.568q-7.168 0-13.312-5.12t-5.12-13.312v-108.544q0-8.192 5.12-13.312t13.312-5.12h109.568q7.168 0 13.312 5.12t5.12 13.312zM583.68 292.608l10.24 262.144q0 7.168-6.144 11.264-7.168 6.144-13.312 6.144h-125.952q-6.144 0-13.312-6.144-6.144-4.096-6.144-12.288l9.216-261.12q0-6.144 6.144-9.216t13.312-4.096h105.472q8.192 0 13.312 4.096t6.144 9.216zM575.488 826.112l439.296-804.864q20.48-35.84-1.024-71.68-9.216-16.384-26.624-26.624t-35.84-9.216h-877.568q-19.456 0-35.84 9.216t-26.624 26.624q-21.504 35.84-1.024 71.68l439.296 804.864q9.216 17.408 26.624 27.648t36.864 10.24 36.864-10.24 26.624-27.648z" />
<glyph unicode="&#xe805;" glyph-name="check" horiz-adv-x="683" d="M254.976-6.4q-34.816 0-57.344 28.672l-184.32 241.664q-16.384 24.576-12.288 53.248t26.624 47.104 52.224 14.336 48.128-28.672l120.832-157.696 303.104 485.376q16.384 24.576 44.032 30.72t54.272-8.192q24.576-16.384 30.72-44.032t-8.192-54.272l-358.4-573.44q-20.48-32.768-57.344-32.768z" />
<glyph unicode="&#xe806;" glyph-name="cancel" horiz-adv-x="481" d="M462.848 192.256q18.432-18.432 18.432-44.032t-18.432-44.032q-18.432-16.384-44.032-16.384t-44.032 16.384l-135.168 155.648-135.168-155.648q-18.432-16.384-44.032-16.384t-44.032 16.384q-16.384 18.432-16.384 44.032t16.384 44.032l141.312 159.744-141.312 161.792q-16.384 18.432-16.384 44.032t16.384 44.032q18.432 16.384 44.032 16.384t44.032-16.384l135.168-155.648 135.168 155.648q18.432 16.384 44.032 16.384t44.032-16.384q18.432-18.432 18.432-44.032t-18.432-44.032l-141.312-161.792z" />
<glyph unicode="&#xe807;" glyph-name="right-thin" horiz-adv-x="1004" d="M759.808 96v165.888h-759.808v182.272h759.808v163.84l243.712-256z" />
<glyph unicode="&#xe808;" glyph-name="snow" horiz-adv-x="883" d="M837.632 184.064q23.552-5.12 35.84-23.552t8.192-41.984q-6.144-33.792-40.96-43.008t-56.32 16.384l-88.064 100.352 21.504-77.824q6.144-24.576-9.216-46.080t-44.032-21.504q-18.432 0-31.744 11.264t-19.456 28.672l-21.504 80.896q-33.792-26.624-65.536-38.912l59.392-59.392q15.36-15.36 15.36-36.864t-15.36-36.864q-16.384-16.384-36.864-16.384-21.504 0-38.912 16.384l-36.864 36.864h-13.312l34.816-106.496q8.192-21.504-3.072-43.008t-32.768-28.672q-29.696-10.24-55.296 13.312t-14.336 59.392l35.84 106.496h-14.336l-36.864-36.864q-15.36-15.36-37.888-15.36t-37.888 15.36-15.36 36.864 15.36 36.864l59.392 59.392q-31.744 11.264-65.536 38.912l-21.504-80.896q-5.12-18.432-19.456-28.672t-31.744-11.264q-28.672 0-43.008 21.504t-8.192 46.080l20.48 79.872-88.064-101.376q-15.36-16.384-38.912-18.432t-39.936 14.336q-18.432 15.36-19.456 38.912t14.336 40.96q13.312 13.312 30.72 16.384l131.072 26.624-77.824 21.504q-21.504 6.144-32.768 25.6t-6.144 39.936 24.576 31.744 40.96 5.12l80.896-20.48q-4.096 19.456-4.096 36.864t4.096 36.864l-80.896-20.48q-10.24-3.072-14.336-3.072-18.432 0-31.744 11.264t-19.456 28.672q-5.12 20.48 6.144 39.936t32.768 25.6l77.824 21.504-131.072 26.624q-23.552 5.12-35.84 23.552t-8.192 41.984q6.144 33.792 40.96 43.008t56.32-16.384l88.064-101.376-20.48 79.872q-6.144 21.504 5.12 40.96t31.744 24.576q21.504 6.144 40.96-5.12t24.576-31.744l21.504-80.896q33.792 26.624 65.536 38.912l-59.392 59.392q-15.36 15.36-15.36 36.864t15.36 36.864 37.888 15.36 37.888-15.36l57.344-57.344-41.984 126.976q-8.192 21.504 3.072 43.008t32.768 28.672q29.696 10.24 55.296-13.312t14.336-59.392l-41.984-126.976 57.344 57.344q15.36 15.36 37.888 15.36t37.888-15.36 15.36-36.864-15.36-36.864l-59.392-59.392q31.744-11.264 65.536-38.912l21.504 80.896q5.12 20.48 24.576 31.744t40.96 5.12 32.768-25.6 6.144-39.936l-21.504-77.824 88.064 100.352q15.36 16.384 38.912 18.432t39.936-14.336q18.432-15.36 19.456-38.912t-14.336-40.96q-13.312-13.312-30.72-16.384l-131.072-26.624 79.872-21.504q20.48-5.12 31.744-24.576t5.12-40.96q-5.12-18.432-19.456-28.672t-31.744-11.264q-4.096 0-14.336 3.072l-80.896 20.48q4.096-19.456 4.096-36.864t-4.096-36.864l80.896 20.48q21.504 6.144 40.96-5.12t24.576-31.744q6.144-21.504-5.12-40.96t-31.744-24.576l-79.872-21.504zM442.368 218.88q55.296 0 94.208 38.912t38.912 94.208-38.912 94.208-94.208 38.912-95.232-38.912-39.936-94.208 39.936-94.208 95.232-38.912z" />
<glyph unicode="&#xe809;" glyph-name="thermometer" horiz-adv-x="553" d="M409.6 358.144q65.536-36.864 104.448-100.352t38.912-141.312q0-114.688-80.896-195.584t-195.584-80.896-195.584 80.896-80.896 195.584q0 77.824 38.912 141.312t104.448 100.352v454.656q0 51.2 40.96 51.2h174.080q20.48 0 35.84-15.36t15.36-35.84v-454.656zM276.48-57.6q71.68 0 122.88 51.2t51.2 122.88q0 57.344-32.768 102.4t-86.016 61.44v378.88h-102.4v-376.832q-55.296-16.384-91.136-62.464t-35.84-103.424q0-71.68 51.2-122.88t122.88-51.2z" />
<glyph unicode="&#xe80a;" glyph-name="down-open" horiz-adv-x="950" d="M920.576 461.568q0-30.72-21.504-51.2l-371.712-371.712q-21.504-21.504-52.224-21.504t-51.2 21.504l-371.712 371.712q-21.504 20.48-21.504 51.2t21.504 52.224l41.984 43.008q22.528 21.504 52.224 21.504 30.72 0 51.2-21.504l277.504-277.504 277.504 277.504q21.504 21.504 51.2 21.504t52.224-21.504l43.008-43.008q21.504-22.528 21.504-52.224z" />
<glyph unicode="&#xe80b;" glyph-name="left-open" horiz-adv-x="657" d="M423.936-35.072l-372.736 371.712q-21.504 21.504-21.504 51.2t21.504 51.2l372.736 371.712q21.504 21.504 51.2 21.504t51.2-21.504l43.008-43.008q21.504-21.504 21.504-51.2t-21.504-51.2l-277.504-277.504 277.504-277.504q21.504-21.504 21.504-52.224t-21.504-51.2l-43.008-43.008q-21.504-21.504-51.2-21.504t-51.2 21.504z" />
<glyph unicode="&#xe80c;" glyph-name="right-open" horiz-adv-x="657" d="M627.712 388.864q0-29.696-21.504-52.224l-372.736-371.712q-21.504-21.504-51.2-21.504t-51.2 21.504l-43.008 43.008q-21.504 22.528-21.504 52.224 0 30.72 21.504 51.2l277.504 277.504-277.504 277.504q-21.504 22.528-21.504 52.224 0 30.72 21.504 51.2l43.008 43.008q20.48 21.504 51.2 21.504t51.2-21.504l372.736-371.712q21.504-21.504 21.504-51.2z" />
<glyph unicode="&#xe80d;" glyph-name="up-open" horiz-adv-x="950" d="M920.576 168.704q0-30.72-21.504-51.2l-43.008-43.008q-21.504-21.504-52.224-21.504t-51.2 21.504l-277.504 277.504-277.504-277.504q-20.48-21.504-51.2-21.504t-51.2 21.504l-43.008 43.008q-21.504 20.48-21.504 51.2t21.504 52.224l371.712 371.712q21.504 21.504 51.2 21.504t52.224-21.504l371.712-371.712q21.504-21.504 21.504-52.224z" />
<glyph unicode="&#xe80f;" glyph-name="spin5" d="M473.088 864c-6.144 0-12.288-5.12-12.288-12.288v-186.368c0-6.144 5.12-12.288 12.288-12.288h70.656s1.024 0 1.024 0c6.144 0 12.288 5.12 12.288 12.288v186.368c0 6.144-5.12 12.288-12.288 12.288h-70.656s-1.024 0-1.024 0zM729.088 815.872c-4.096 0-8.192-2.048-10.24-6.144l-93.184-161.792c-3.072-6.144-1.024-13.312 4.096-16.384l61.44-35.84s0 0 1.024 0c6.144-3.072 13.312-1.024 16.384 4.096l93.184 161.792c3.072 6.144 1.024 13.312-4.096 16.384l-62.464 35.84c-2.048 1.024-4.096 1.024-5.12 2.048zM290.816 812.8c-2.048 0-4.096-1.024-5.12-2.048l-62.464-35.84c-5.12-3.072-7.168-10.24-4.096-16.384l93.184-160.768s0 0 0-1.024c3.072-6.144 10.24-7.168 16.384-4.096l62.464 35.84c5.12 3.072 7.168 10.24 4.096 16.384l-93.184 160.768s0 0 0 1.024c-2.048 4.096-6.144 6.144-10.24 6.144zM925.696 646.912c-2.048 0-4.096-1.024-5.12-2.048l-160.768-93.184s0 0-1.024 0c-6.144-3.072-7.168-10.24-4.096-16.384l35.84-62.464c3.072-5.12 10.24-7.168 16.384-4.096l160.768 93.184s0 0 1.024 0c6.144 3.072 7.168 10.24 4.096 16.384l-35.84 62.464c-2.048 4.096-6.144 6.144-10.24 6.144zM96.256 641.792c-4.096 0-8.192-2.048-10.24-6.144l-35.84-62.464c-3.072-6.144-1.024-13.312 4.096-16.384l161.792-93.184c6.144-3.072 13.312-1.024 16.384 4.096l35.84 61.44s0 0 0 1.024c3.072 6.144 1.024 13.312-4.096 16.384l-161.792 93.184c-2.048 1.024-4.096 1.024-5.12 2.048zM826.368 402.176c-6.144 0-12.288-5.12-12.288-12.288v-70.656s0-1.024 0-1.024c0-6.144 5.12-12.288 12.288-12.288h186.368c6.144 0 12.288 5.12 12.288 12.288v70.656s0 1.024 0 1.024c0 6.144-5.12 12.288-12.288 12.288h-186.368zM12.288 397.056c-6.144 0-12.288-5.12-12.288-12.288v-70.656s0-1.024 0-1.024c0-6.144 5.12-12.288 12.288-12.288h186.368c6.144 0 12.288 5.12 12.288 12.288v70.656s0 1.024 0 1.024c0 6.144-5.12 12.288-12.288 12.288h-186.368zM803.84 240.384c-4.096 0-8.192-2.048-10.24-6.144l-35.84-61.44s0 0 0-1.024c-3.072-6.144-1.024-13.312 4.096-16.384l161.792-93.184c6.144-3.072 13.312-1.024 16.384 4.096l35.84 62.464c3.072 6.144 1.024 13.312-4.096 16.384l-161.792 93.184c-2.048 1.024-4.096 1.024-5.12 2.048zM224.256 235.264c-2.048 0-4.096-1.024-5.12-2.048l-160.768-93.184s0 0-1.024 0c-6.144-3.072-7.168-10.24-4.096-16.384l35.84-62.464c3.072-5.12 10.24-7.168 16.384-4.096l160.768 93.184s0 0 1.024 0c6.144 3.072 7.168 10.24 4.096 16.384l-35.84 62.464c-2.048 4.096-6.144 6.144-10.24 6.144zM702.464 111.36c-2.048 0-4.096-1.024-5.12-2.048l-62.464-35.84c-5.12-3.072-7.168-10.24-4.096-16.384l93.184-160.768s0 0 0-1.024c3.072-6.144 10.24-7.168 16.384-4.096l62.464 35.84c5.12 3.072 7.168 10.24 4.096 16.384l-93.184 160.768s0 0 0 1.024c-2.048 4.096-6.144 6.144-10.24 6.144zM327.68 108.288c-4.096 0-8.192-2.048-10.24-6.144l-93.184-161.792c-3.072-6.144-1.024-13.312 4.096-16.384l62.464-35.84c6.144-3.072 13.312-1.024 16.384 4.096l93.184 161.792c3.072 6.144 1.024 13.312-4.096 16.384l-61.44 35.84s0 0-1.024 0c-2.048 1.024-4.096 2.048-5.12 2.048zM479.232 49.92c-6.144 0-12.288-5.12-12.288-12.288v-186.368c0-6.144 5.12-12.288 12.288-12.288h70.656s1.024 0 1.024 0c6.144 0 12.288 5.12 12.288 12.288v186.368c0 6.144-5.12 12.288-12.288 12.288h-70.656s-1.024 0-1.024 0z" />
<glyph unicode="&#xe810;" glyph-name="menu-1" horiz-adv-x="878" d="M877.568 96v-72.704q0-15.36-11.264-25.6t-25.6-11.264h-804.864q-15.36 0-25.6 11.264t-11.264 25.6v72.704q0 15.36 11.264 25.6t25.6 11.264h804.864q15.36 0 25.6-11.264t11.264-25.6zM877.568 388.864v-72.704q0-15.36-11.264-25.6t-25.6-11.264h-804.864q-15.36 0-25.6 11.264t-11.264 25.6v72.704q0 15.36 11.264 25.6t25.6 11.264h804.864q15.36 0 25.6-11.264t11.264-25.6zM877.568 681.728v-72.704q0-15.36-11.264-25.6t-25.6-11.264h-804.864q-15.36 0-25.6 11.264t-11.264 25.6v72.704q0 15.36 11.264 25.6t25.6 11.264h804.864q15.36 0 25.6-11.264t11.264-25.6z" />
<glyph unicode="&#xe811;" glyph-name="info-1" horiz-adv-x="366" d="M365.568 96v-72.704q0-15.36-11.264-25.6t-25.6-11.264h-292.864q-15.36 0-25.6 11.264t-11.264 25.6v72.704q0 15.36 11.264 25.6t25.6 11.264h36.864v219.136h-36.864q-15.36 0-25.6 11.264t-11.264 25.6v72.704q0 15.36 11.264 25.6t25.6 11.264h219.136q15.36 0 25.6-11.264t11.264-25.6v-328.704h36.864q15.36 0 25.6-11.264t11.264-25.6zM292.864 754.432v-109.568q0-15.36-11.264-25.6t-25.6-11.264h-146.432q-15.36 0-25.6 11.264t-11.264 25.6v109.568q0 15.36 11.264 25.6t25.6 11.264h146.432q15.36 0 25.6-11.264t11.264-25.6z" />
<glyph unicode="&#xe812;" glyph-name="leaf" horiz-adv-x="963" d="M241.664 655.104q186.368 108.544 518.144 67.584 172.032-22.528 200.704-51.2 4.096-6.144-2.048-10.24-77.824-40.96-133.12-111.616t-79.872-135.168-66.56-135.168-95.232-107.52q-141.312-98.304-391.168-4.096-67.584-77.824-116.736-180.224-12.288-24.576-48.128-7.168t-25.6 39.936q45.056 102.4 132.096 197.632t180.224 156.672 180.224 108.544 144.384 69.632l55.296 20.48q-14.336 0-41.984-1.024t-106.496-14.336-151.552-38.912-165.888-86.016-164.864-144.384q-22.528 247.808 178.176 366.592z" />
<glyph unicode="&#xe813;" glyph-name="user-1" horiz-adv-x="804" d="M804.864 61.184q0-68.608-41.984-108.544t-110.592-39.936h-499.712q-69.632 0-110.592 39.936t-41.984 108.544q0 30.72 2.048 59.392t8.192 62.464 15.36 62.464 24.576 55.296 35.84 46.080 49.152 30.72 63.488 11.264q5.12 0 23.552-12.288t43.008-27.648 61.44-27.648 75.776-12.288 75.776 12.288 61.44 27.648 43.008 27.648 23.552 12.288q34.816 0 63.488-11.264t49.152-30.72 35.84-46.080 24.576-55.296 15.36-62.464 8.192-62.464 2.048-59.392zM621.568 571.136q0-91.136-64.512-154.624t-154.624-64.512-154.624 64.512-64.512 154.624 64.512 154.624 154.624 64.512 154.624-64.512 64.512-154.624z" />
<glyph unicode="&#xe814;" glyph-name="droplet" horiz-adv-x="573" d="M296.96 835.328q14.336-120.832 61.44-224.256t94.208-162.816 83.968-139.264 36.864-163.84q0-116.736-84.992-200.704t-201.728-83.968-201.728 83.968-84.992 200.704q0 83.968 36.864 163.84t83.968 139.264 94.208 162.816 61.44 224.256q2.048 8.192 11.264 8.192t9.216-8.192zM253.952 433.92q2.048 4.096-2.048 14.336-6.144 6.144-14.336 6.144t-12.288-6.144l-40.96-59.392q-32.768-47.104-49.152-71.68t-34.816-76.8-18.432-103.424q0-24.576 17.408-41.984t41.984-17.408q59.392 0 59.392 69.632 0 96.256 43.008 251.904 2.048 6.144 5.12 17.408t5.12 17.408z" />
<glyph unicode="&#xe815;" glyph-name="key" horiz-adv-x="799" d="M792.576 620.288q20.48-118.784-28.672-220.16t-153.6-119.808q-67.584-12.288-133.12-2.048l-120.832-198.656-71.68-12.288-106.496-169.984q-14.336-28.672-47.104-32.768l-77.824-14.336q-12.288-4.096-22.528 4.096t-12.288 22.528l-16.384 100.352q-8.192 30.72 12.288 57.344l264.192 395.264q-24.576 51.2-38.912 122.88-18.432 108.544 54.272 191.488t189.44 103.424q108.544 20.48 199.68-46.080t109.568-181.248zM663.552 542.464q30.72 45.056 21.504 99.328t-52.224 84.992q-43.008 32.768-94.208 22.528t-81.92-55.296q-8.192-12.288-12.288-23.552t-1.024-20.48 5.12-16.384 13.312-17.408 18.432-15.36 22.528-16.384 23.552-17.408q6.144-4.096 22.528-16.384t23.552-16.384 19.456-12.288 19.456-8.192 17.408 1.024 18.432 8.192 16.384 19.456z" />
<glyph unicode="&#xe816;" glyph-name="bell" horiz-adv-x="950" d="M484.352-104.704q0 9.216-9.216 9.216-33.792 0-58.368 24.576t-24.576 58.368q0 9.216-9.216 9.216t-9.216-9.216q0-41.984 29.696-70.656t70.656-29.696q9.216 0 9.216 9.216zM104.448 60.16h741.376q-94.208 103.424-141.312 235.52t-47.104 276.48q0 146.432-183.296 146.432t-183.296-146.432q0-145.408-47.104-276.48t-141.312-235.52zM950.272 60.16q0-29.696-21.504-51.2t-51.2-21.504h-256q0-60.416-43.008-103.424t-103.424-43.008-103.424 43.008-43.008 103.424h-256q-29.696 0-51.2 21.504t-21.504 51.2q108.544 92.16 163.84 227.328t55.296 284.672q0 94.208 55.296 149.504t150.528 66.56q-4.096 10.24-4.096 21.504 0 22.528 16.384 38.912t38.912 16.384 38.912-16.384 16.384-38.912q0-11.264-4.096-21.504 96.256-11.264 150.528-66.56t55.296-149.504q0-149.504 55.296-284.672t163.84-227.328z" />
<glyph unicode="&#xe817;" glyph-name="wrench" horiz-adv-x="950" d="M219.136 23.296q0 15.36-11.264 25.6t-25.6 11.264-25.6-11.264-11.264-25.6 11.264-25.6 25.6-11.264 25.6 11.264 11.264 25.6zM586.752 262.912l-390.144-390.144q-21.504-21.504-51.2-21.504t-52.224 21.504l-60.416 61.44q-21.504 20.48-21.504 51.2t21.504 52.224l389.12 389.12q22.528-56.32 65.536-99.328t99.328-65.536zM949.248 511.744q0-22.528-13.312-60.416-26.624-76.8-94.208-123.904t-147.456-48.128q-105.472 0-181.248 74.752t-74.752 181.248 74.752 181.248 181.248 74.752q32.768 0 69.632-9.216t61.44-26.624q9.216-6.144 9.216-16.384t-9.216-16.384l-166.912-96.256v-128l110.592-61.44q3.072 2.048 45.056 27.648t77.824 46.080 39.936 20.48q8.192 0 13.312-6.144t5.12-14.336z" />
<glyph unicode="&#xe818;" glyph-name="clock3" horiz-adv-x="878" d="M512 552.704v-256q0-8.192-5.12-13.312t-13.312-5.12h-183.296q-8.192 0-13.312 5.12t-5.12 13.312v36.864q0 8.192 5.12 13.312t13.312 5.12h128v200.704q0 8.192 5.12 13.312t13.312 5.12h36.864q8.192 0 13.312-5.12t5.12-13.312zM749.568 352q0 84.992-41.984 155.648t-112.64 112.64-155.648 41.984-155.648-41.984-112.64-112.64-41.984-155.648 41.984-155.648 112.64-112.64 155.648-41.984 155.648 41.984 112.64 112.64 41.984 155.648zM877.568 352q0-119.808-58.368-220.16t-159.744-159.744-220.16-58.368-220.16 58.368-159.744 159.744-58.368 220.16 58.368 220.16 159.744 159.744 220.16 58.368 220.16-58.368 159.744-159.744 58.368-220.16z" />
<glyph unicode="&#xe819;" glyph-name="block" horiz-adv-x="878" d="M749.568 354.048q0 92.16-50.176 168.96l-431.104-430.080q77.824-51.2 169.984-51.2 63.488 0 120.832 24.576t99.328 66.56 66.56 99.328 24.576 121.856zM179.2 183.040l431.104 431.104q-76.8 52.224-171.008 52.224-84.992 0-155.648-41.984t-112.64-113.664-41.984-156.672q0-92.16 51.2-171.008zM877.568 354.048q0-90.112-34.816-171.008t-93.184-140.288-140.288-94.208-171.008-34.816-171.008 34.816-140.288 94.208-93.184 140.288-34.816 171.008 34.816 171.008 93.184 140.288 140.288 94.208 171.008 34.816 171.008-34.816 140.288-94.208 93.184-140.288 34.816-171.008z" />
<glyph unicode="&#xe81a;" glyph-name="fan" horiz-adv-x="1025" d="M644.096 383.744c41.984 15.36 110.592 24.576 177.152-12.288 112.64-62.464 218.112 32.768 202.752 138.24-13.312 93.184-71.68 188.416-144.384 226.304-109.568 57.344-192.512 25.6-257.024-44.032-41.984-46.080-86.016-125.952-89.088-202.752-1.024-35.84-43.008-34.816-53.248-6.144-15.36 40.96-24.576 110.592 12.288 176.128 62.464 112.64-32.768 219.136-138.24 203.776-93.184-14.336-188.416-71.68-226.304-145.408-57.344-109.568-25.6-191.488 44.032-256 46.080-41.984 126.976-86.016 202.752-89.088 35.84-2.048 34.816-44.032 6.144-54.272-40.96-14.336-110.592-23.552-176.128 13.312-112.64 62.464-219.136-32.768-202.752-138.24 13.312-93.184 70.656-188.416 144.384-227.328 109.568-56.32 192.512-24.576 256 45.056 41.984 45.056 86.016 125.952 89.088 202.752 2.048 35.84 44.032 33.792 54.272 6.144 14.336-41.984 23.552-110.592-12.288-177.152-63.488-112.64 31.744-218.112 137.216-202.752 93.184 13.312 188.416 71.68 226.304 144.384 57.344 109.568 25.6 192.512-44.032 257.024-45.056 41.984-125.952 86.016-202.752 89.088-35.84 2.048-33.792 43.008-6.144 53.248zM513.024 298.752c-28.672 0-52.224 23.552-52.224 52.224s23.552 52.224 52.224 52.224c28.672 0 52.224-23.552 52.224-52.224s-23.552-52.224-52.224-52.224z" />
<glyph unicode="&#xe81b;" glyph-name="faucet" d="M867.328 630.528v-200.704h-238.592c-20.48 32.768-51.2 58.368-88.064 71.68v69.632h115.712c32.768 0 59.392 26.624 59.392 59.392s-26.624 59.392-59.392 59.392h-349.184c-32.768 0-59.392-26.624-59.392-59.392s26.624-59.392 59.392-59.392h114.688v-69.632c-36.864-13.312-67.584-38.912-88.064-71.68h-94.208c-114.688 0-207.872-93.184-207.872-207.872v-178.176h267.264v118.784h568.32v-148.48h124.928v616.448h-124.928z" />
<glyph unicode="&#xe81d;" glyph-name="cw" horiz-adv-x="963" d="M417.792 771.84q172.032 0 293.888-118.784t125.952-288.768h124.928l-188.416-210.944-188.416 210.944h147.456q-4.096 126.976-96.256 215.040t-219.136 88.064q-129.024 0-221.184-92.16t-92.16-223.232q0-129.024 92.16-221.184t221.184-92.16q106.496 0 186.368 61.44l71.68-77.824q-112.64-90.112-258.048-90.112-172.032 0-294.912 122.88t-122.88 296.96 122.88 296.96 294.912 122.88z" />
<glyph unicode="&#xe900;" glyph-name="symbol8" d="M198.861 100.051l-30.71-30.642c-9.256-9.303-9.35-24.452 0-33.788 9.333-9.328 24.456-9.328 33.797 0l50.623 50.559c21.292-3.551 43.849-5.735 68.39-5.735h382.236c24.481 0 47.076 2.184 68.488 5.735l50.517-50.559c9.333-9.328 24.349-9.328 33.818 0 9.282 9.333 9.282 24.486 0 33.788l-30.68 30.642c98.313 35.964 150.009 121.291 150.009 252.451h-926.458c0-131.19 51.607-216.483 149.97-252.451zM1000.132 423.132h-976.242c-13.199 0-23.89-10.653-23.89-23.894 0-13.233 10.691-23.855 23.89-23.855h976.204c13.19 0 23.907 10.653 23.907 23.855 0 13.237-10.716 23.894-23.868 23.894zM912.259 487.243l-57.669-11.33c-6.859 0-12.475-5.582-12.475-12.475 0-6.885 5.612-12.462 12.475-12.462h82.683c1.827 0 3.619 0.4 5.322 1.205 0.72 0.324 0.907 1.209 1.503 1.639 1.367 0.937 2.154 1.971 3.091 3.376 0.817 1.401 1.452 2.61 1.809 4.241 0.119 0.732 0.754 1.239 0.754 2.073 0 0.609-0.754 1.716-1.060 2.482-0.187 0.928 0.307 1.92-0.115 2.84l-80.759 170.381c-9.175 20.969-35.061 36.164-65.908 36.164-38.408 0-69.714-23.664-69.714-52.875h116.037l64.026-135.26zM766.205 607.027c-2.882 1.75-6.74 0.881-8.566-2.108l-21.735-35.79c-1.89-2.933-0.903-6.757 2.035-8.549 0.971-0.639 2.15-0.911 3.291-0.911 2.061 0 4.113 1.073 5.288 2.968l21.769 35.836c1.861 2.904 0.856 6.761-2.082 8.554zM773.903 559.636c2.065 0 4.113 1.073 5.288 2.968l21.808 35.836c1.827 2.933 0.852 6.757-2.099 8.549-2.933 1.75-6.774 0.886-8.549-2.099l-21.808-35.794c-1.754-2.933-0.813-6.757 2.065-8.549 1.111-0.605 2.184-0.911 3.295-0.911zM806.614 559.636c2.078 0 4.109 1.073 5.288 2.968l21.735 35.836c1.827 2.933 0.886 6.757-2.065 8.549-2.933 1.75-6.791 0.886-8.549-2.099l-21.803-35.794c-1.827-2.933-0.869-6.757 2.061-8.549 1.111-0.605 2.15-0.911 3.334-0.911z" />
<glyph unicode="&#xe901;" glyph-name="symbol14" d="M0 784.375h184.001v-92h-184.001v92zM0 655.575h184.001v-625.612h-184.001v625.612zM33.73 145.746c0-31.764 25.729-57.513 57.503-57.513 31.764 0 57.503 25.729 57.503 57.513s-25.739 57.513-57.503 57.513c-31.774-0.011-57.503-25.771-57.503-57.513zM0-80.438h184.001v73.6h-184.001v-73.6zM220.801 6.032v-86.48h239.201v86.932c-9.768 6.982-40.112 23.468-110.4 23.468-66.629 0.011-109.181-14.92-128.8-23.92zM220.801 535.354c19.62-8.979 62.171-23.931 128.8-23.931 69.847 0.011 100.265 16.297 110.4 23.605v65.346h-239.201v-65.021zM220.801 495.515v-449.634c26.643 9.968 69.31 20.871 128.8 20.871 53.676 0 88.499-8.979 110.4-18.579v445.008c-21.901-9.568-56.725-18.558-110.4-18.558-59.49 0.021-102.157 10.924-128.8 20.892zM850.177 788.507l-126.172-25.886 18.505-90.118 126.172 25.886-18.505 90.118zM1001.794 49.466l-126.151-25.897-125.762 612.869 126.172 25.886 125.741-612.859zM958.023 158.7c-6.382 31.091-31.249 52.267-55.463 47.293-24.257-4.994-38.777-34.256-32.353-65.346 6.372-31.091 31.217-52.288 55.453-47.293 24.267 4.973 38.766 34.214 32.363 65.346zM1009.206 13.465l-126.193-25.907 14.804-72.065 126.172 25.897-14.783 72.076zM515.202 692.375h184.001v92h-184.001v-92zM515.202-80.438h184.001v73.6h-184.001v-73.6zM515.202 121.962h184.001v441.612h-184.001v-441.612zM515.202 29.962h184.001v55.2h-184.001v-55.2zM515.202 600.374h184.001v55.2h-184.001v-55.2z" />
<glyph unicode="&#xe902;" glyph-name="set2" d="M178.899 184.299l462.371 0.165c47.128 0 91.755-18.967 132.685-56.404 17.872-16.384 63.037-61.508 64.979-63.429l-24.38-24.297c-0.434 0.475-46.487 46.487-63.842 62.396-34.38 31.405-71.177 47.128-109.441 47.128h-467.619c-25.103 0-41.281 17.273-41.281 58.119-0.289 51.983 47.086 91.032 102.375 91.032h173.676v22.913c0 17.355-5.578 31.322-17.025 42.686l-118.036 117.354c-7.231 7.19-24.566 8.967-41.033-0.64l-115.577-67.417c-17.107-10-35.599-12.748-53.429-8.078-19.525 5.083-36.797 19.132-48.698 39.545l-6.012 10.33c-13.161 22.52-7.996 43.512 13.76 56.177l213.076 124.689c25.62 14.938 67.995 15.661 98.016-4.029 30.991 21.797 72.561 21.797 103.553 0.165 30.516 21.301 71.342 21.632 102.127 0.888 35.103 23.657 83.243 20.020 114.276-11.054l372.021-371.98-24.38-24.38-371.98 372.062c-17.025 17.025-42.417 20.578-63.119 10.971l62.706-62.789-24.297-24.297-76.115 76.115c-17.52 17.52-43.822 20.744-64.813 10l91.363-91.363-24.297-24.297-105.681 105.639c-17.562 17.52-43.781 20.744-64.772 10l114.11-114.11-24.297-24.38-128.49 128.49c-18.719 18.719-53.181 17.603-68.636 8.554l-213.014-124.586c-2.872-1.694-3.76-5.083-1.426-9.132l4.359-8.078c7.335-12.583 18.636-23.078 29.38-25.909 8.884-2.335 18.326-0.723 27.355 4.525l115.577 67.396c28.491 16.632 63.305 14.69 82.726-4.752l118.036-117.272c17.954-17.996 27.087-40.516 27.087-67.065v-57.293h-208.056c-20.413 0-39.628-7.5-52.706-20.661-7.025-7.025-15.248-18.967-15.248-35.743-0.021-19.070 7.314-23.905 12.087-23.905z" />
<glyph unicode="&#xe903;" glyph-name="valv" d="M0 364.965v-524.965l512 262.48zM512 102.48l512 262.485v-524.965zM501.498 364.942v-262.453h21.014v262.453h-21.014zM347.898 795.657v-441.414h328.215v441.414h-328.215zM368.911 774.209h286.187v-398.517h-286.187v398.517z" />
<glyph unicode="&#xe904;" glyph-name="symbol12" d="M58.575 512.494c-32.333 0-58.575-26.241-58.575-58.575v-203.839c0-32.333 26.241-58.575 58.575-58.575s58.575 26.241 58.575 58.575v203.839c0 32.333-26.241 58.575-58.575 58.575zM808.446 577.512c-32.333 0-58.575-26.241-58.575-58.575v-120.078h-475.625v120.078c0 32.333-26.241 58.575-58.575 58.575s-58.575-26.241-58.575-58.575v-333.875c0-32.333 26.241-58.575 58.575-58.575s58.575 26.241 58.575 58.575v120.078h475.625v-120.078c0-32.333 26.241-58.575 58.575-58.575s58.575 26.241 58.575 58.575v333.875c0 32.333-26.243 58.575-58.575 58.575zM965.425 512.494c-32.333 0-58.575-26.241-58.575-58.575v-203.839c0-32.333 26.241-58.575 58.575-58.575s58.575 26.241 58.575 58.575v203.839c0 32.333-26.243 58.575-58.575 58.575z" />
<glyph unicode="&#xe905;" glyph-name="symbol16" d="M932.438 571.194c-135.251 222.211-338.997 67.616-338.997 67.616-13.214-9.987-37.579-18.198-54.135-18.236l-54.574-0.038c-16.556-0.019-40.921 8.192-54.116 18.179 0 0-203.765 154.633-339.036-67.578-135.232-222.135-80.735-464.052-80.735-464.052 9.548-59.233 41.017-98.76 100.403-93.796 59.214 4.946 187.744 159.521 187.744 159.521 10.617 12.737 32.863 23.143 49.38 23.143l327.177 0.057c16.536 0 38.763-10.407 49.361-23.143 0 0 128.549-154.576 187.859-159.521 59.31-4.965 90.855 34.601 100.345 93.796-0.019 0 54.574 241.879-80.677 464.052zM389.046 390.324h-70.156v-67.616c0 0-14.856-11.343-37.847-11.056-22.952 0.344-33.34 12.374-33.34 12.374v66.279h-66.26c0 0-8.268 8.478-10.483 30.801-2.177 22.322 9.147 40.367 9.147 40.367h70.175v70.156c0 0 14.436 7.734 35.192 7.142 20.776-0.649 35.994-8.459 35.994-8.459l-0.286-68.819h66.26c0 0 11.572-14.856 12.526-32.806 0.955-17.969-10.922-38.362-10.922-38.362zM710.838 313.256c-30.724 0-55.491 24.843-55.491 55.529 0 30.743 24.766 55.529 55.491 55.529 30.591 0 55.548-24.786 55.548-55.529 0-30.705-24.957-55.529-55.548-55.529zM710.838 466.037c-30.724 0-55.491 24.824-55.491 55.51 0 30.743 24.766 55.529 55.491 55.529 30.591 0 55.548-24.786 55.548-55.529 0-30.705-24.957-55.51-55.548-55.51zM849.126 384.023c-30.724 0-55.491 24.824-55.491 55.529 0 30.724 24.766 55.529 55.491 55.529 30.591 0 55.548-24.805 55.548-55.529 0-30.705-24.957-55.529-55.548-55.529z" />
<glyph unicode="&#xe906;" glyph-name="symbol10" d="M974.233 176.686c-0.002 0-0.002 0 0 0l-368.693 230.421c-6.428 4.017-13.858 6.149-21.437 6.149h-31.652v17.193c62.598 17.674 108.609 75.309 108.609 143.487 0 82.193-66.867 149.063-149.060 149.063-82.195 0-149.063-66.87-149.063-149.063 0-22.341 18.111-40.451 40.451-40.451s40.451 18.111 40.451 40.451c0 37.583 30.574 68.16 68.16 68.16 37.583 0 68.157-30.577 68.157-68.16s-30.577-68.16-68.157-68.16c-22.341 0-40.451-18.111-40.451-40.451v-52.069h-31.652c-7.579 0-15.009-2.131-21.437-6.149l-368.693-230.421c-31.161-19.479-49.767-53.045-49.767-89.795 0-58.386 47.502-105.888 105.888-105.888h812.222c58.389 0 105.89 47.502 105.89 105.888 0 36.751-18.605 70.316-49.767 89.795zM918.11 61.905h-812.222c-13.777 0-24.985 11.209-24.985 24.985 0 8.67 4.39 16.594 11.742 21.19l358.851 224.272h121.005l358.851-224.272c7.355-4.595 11.745-12.519 11.745-21.19 0-13.777-11.211-24.985-24.987-24.985z" />
<glyph unicode="&#xe907;" glyph-name="symbol15" d="M1017.392 344.158c-33.23 30.931-47.233 81.299-34.066 125.188 1.672 4.807 49.95 114.321-36.574 149.432-66.252 16.302-109.723-11.286-121.009-22.781l-4.18 8.778-76.492-45.561-7.315 19.646c0 0-586.024-3.971-701.39-421.754h763.044l61.027 95.093-92.794 248.287 84.434 48.696-4.807 10.032c2.508 1.672 28.005 31.767 86.106 21.109 41.799-11.704 12.958-93.421 11.286-99.9-17.138-58.519 0.836-125.188 45.561-166.57 3.971-3.971 16.302-10.659 28.423 0.836 7.733 9.196 6.897 21.527-1.254 29.468zM389.986 313.436c43.889 159.255 267.306 160.927 267.306 160.927l60.191-160.927h-327.496zM0 116.771h799.618v-36.574h-799.618v36.574z" />
<glyph unicode="&#xe908;" glyph-name="symbol3" d="M544.48 517.535c0-19.537-15.838-35.375-35.375-35.375s-35.375 15.838-35.375 35.375c0 19.537 15.838 35.375 35.375 35.375s35.375-15.838 35.375-35.375zM782.179 53.747c-17.028 9.14-14.407 25.618-14.407 35.948v144.334c49.81 10.173 159.432 11.107 159.432 109.564 0 48.652-39.692 66.468-88.098 61.546-38.6-3.922-56.755-29.683-122.145-5.089-8.289 3.117-31.415 23.516-18.175 39.655 33.849 41.266 52.944 95.065 52.944 152.998 0 9.47-0.080 28.445 8.412 31.988 43.549 18.178 73 63.286 73 114.28 0 69.049-54.983 125.029-122.799 125.029-36.765 0-69.751-16.463-92.258-42.534-1.97-2.285-5.491-7.027-14.118-3.303-30.546 14.37-56.11 18.631-91.971 18.631-38.517 0-66.509-5.195-98.761-21.63-10.178-3.114-17.094 7.371-22.126 12.46-22.194 22.475-52.764 36.375-86.538 36.375-67.819 0-122.804-55.978-122.804-125.029 0-53.010 32.407-98.311 78.149-116.497 4.421-1.758 11.253-7.062 12.346-29.772 2.761-57.437 19.542-110.353 52.219-152.066 12.119-15.465 0.442-35.429-17.796-41.066-66.526-20.566-83.327 1.603-121.787 5.571-48.4 4.995-88.098-12.893-88.098-61.546 0-95.808 109.59-99.22 159.423-109.249v-144.649c0-10.614 1.485-25.48-20.646-39.153-61.806-25.471-150.518-27.438-150.518-113.934 0-52.632 43.652-105.447 95.297-95.297 64.699 12.71 98.66 34.188 196.831 78.616 21.142 9.634 36.060 4.802 45.343 3.501 27.848-3.911 57.996-5.425 89.463-5.425 35.159 0 68.665 1.887 99.151 6.898 7.695 1.264 25.689 1.99 42.21-4.725 95.805-44.595 126.549-66.035 190.291-78.866 51.597-10.385 95.297 42.666 95.297 95.297 0.006 86.489-95.068 91.338-156.763 117.136zM628.028 482.157c0-51.528-53.24-93.308-118.925-93.308-65.674 0-118.922 41.78-118.922 93.308 0 51.534 53.245 93.308 118.922 93.308 65.683 0 118.925-41.774 118.925-93.308zM337.973 636.047c0 23.447 19 42.453 42.451 42.453 23.444 0 42.456-19.006 42.456-42.453s-19.012-42.453-42.456-42.453c-23.45 0.003-42.451 19.009-42.451 42.453zM655.664 110.86c0-79.342-64.324-114.971-143.66-114.971-79.345 0-143.663 35.63-143.663 114.971v67.555c0 79.342 64.321 143.66 143.663 143.66 79.339 0 143.66-64.321 143.66-143.66v-67.555zM622.758 593.596c-23.447 0-42.453 19.006-42.453 42.453s19.006 42.453 42.453 42.453 42.453-19.006 42.453-42.453-19.006-42.453-42.453-42.453z" />
<glyph unicode="&#xe909;" glyph-name="symbol2" d="M1023.939 181.613c-0.031 1.402-0.147 2.798-0.422 4.175-0.037 0.178-0.086 0.349-0.129 0.52-0.269 1.218-0.655 2.418-1.114 3.6-0.153 0.386-0.306 0.771-0.471 1.151-0.11 0.245-0.19 0.502-0.306 0.741l-71.541 145.977c21.98 8.829 37.555 30.312 37.555 55.402v283.070c0 34.426-28.010 62.43-62.436 62.43-3.778 0-7.61-0.343-11.375-1.022-13.194-2.369-25.090-9.055-34.059-18.582-57.275 65.743-218.595 100.671-372.164 100.671-149.938 0-307.272-33.3-367.933-96.061-8.235 7.071-18.282 12.012-29.235 13.977-3.765 0.68-7.598 1.022-11.375 1.022-34.426 0-62.436-28.004-62.436-62.43v-283.070c0-25.090 15.575-46.579 37.555-55.402l-71.547-145.977c-0.122-0.245-0.196-0.496-0.306-0.747-0.171-0.38-0.318-0.759-0.471-1.145-0.459-1.182-0.845-2.376-1.114-3.594-0.043-0.184-0.092-0.355-0.129-0.539-0.276-1.378-0.386-2.773-0.422-4.169-0.006-0.202-0.061-0.386-0.061-0.588v-187.585c0-13.524 10.965-24.49 24.49-24.49h66.012v-60.208c0-13.524 10.965-24.49 24.49-24.49h104.498c13.524 0 24.49 10.965 24.49 24.49v60.208h544.896v-60.208c0-13.524 10.965-24.49 24.49-24.49h104.504c13.524 0 24.49 10.965 24.49 24.49v60.208h57.147c13.524 0 24.49 10.965 24.49 24.49v187.585c0.006 0.202-0.049 0.386-0.055 0.588zM572.373 584.371c0 14.014 11.4 25.414 25.408 25.414h191.693c14.008 0 25.408-11.4 25.408-25.414v-111.453c0-14.008-11.4-25.408-25.408-25.408h-191.693c-14.008 0-25.408 11.4-25.408 25.408v111.453zM209.105 584.371c0 14.014 11.4 25.414 25.414 25.414h191.693c14.008 0 25.408-11.4 25.408-25.414v-111.453c0-14.008-11.4-25.408-25.408-25.408h-191.693c-14.014 0-25.414 11.4-25.414 25.408v111.453zM63.771 205.515l110.044 224.546c13.488-19.041 35.645-31.53 60.704-31.53h191.693c27.563 0 51.618 15.098 64.469 37.426h42.637c12.851-22.328 36.906-37.426 64.469-37.426h191.693c25.059 0 47.216 12.49 60.704 31.537l110.051-224.546h-896.464z" />
<glyph unicode="&#xe90a;" glyph-name="symbol4" d="M618.263 651.266c2.192 6.577 2.192 15.347 2.192 21.924 0 59.195-48.235 107.429-107.43 107.429s-107.429-48.233-107.429-107.429c0-6.577 0-15.347 2.192-21.924-144.698-15.349-247.742-57.003-249.934-103.046h708.152c2.191 46.043-103.044 87.697-247.744 103.046zM550.296 653.459c-13.153 0-24.115 0-37.271 0s-24.117 0-37.271 0c-2.192 4.385-4.385 10.962-4.385 17.539 0 21.924 17.539 41.656 41.656 41.656 21.924 0 41.658-17.539 41.658-41.656 0-4.387-2.192-10.962-4.387-17.539zM971.243 447.369h-103.046v46.041h-708.15v-46.041h-105.236c-30.694 0-54.811-24.115-54.811-54.811s24.117-54.811 54.811-54.811h103.044v-324.478c0-50.426 39.464-89.889 89.889-89.889h528.374c50.426 0 89.889 39.464 89.889 89.889v324.478h103.044c30.694 0 54.811 24.115 54.811 54.811 2.192 30.696-21.924 54.811-52.618 54.811zM298.169 33.002c0-17.539-15.347-32.886-32.886-32.886s-32.886 15.347-32.886 32.886v374.906c0 17.539 15.347 32.886 32.886 32.886s32.886-15.347 32.886-32.886v-374.906z" />
<glyph unicode="&#xe90b;" glyph-name="symbol1" d="M576 386.394h232.713c25.733 0 46.576 20.846 46.576 46.547v202.378c0 25.711-20.843 46.543-46.576 46.543h-232.713c-25.686 0-46.533-20.832-46.533-46.543v-202.378c-0.004-25.701 20.843-46.547 46.533-46.547zM215.287 386.394h232.713c25.686 0 46.533 20.846 46.533 46.547v202.378c0 25.711-20.846 46.543-46.533 46.543h-232.713c-25.733 0-46.576-20.832-46.576-46.543v-202.378c0-25.701 20.843-46.547 46.576-46.547zM954.174 510.851c-38.578 0-69.801-31.255-69.801-69.811v-109.255c-14.932 10.19-32.933 16.168-52.378 16.168h-639.994c-19.445 0-37.446-5.979-52.378-16.168v109.255c0 38.553-31.219 69.811-69.801 69.811-38.553 0-69.822-31.255-69.822-69.811v-302.546c0-38.553 31.266-69.811 69.822-69.811h23.268c0-25.711 20.846-46.543 46.533-46.543 25.733 0 46.558 20.832 46.558 46.543h651.639c0-25.711 20.825-46.543 46.558-46.543 25.686 0 46.533 20.832 46.533 46.543h23.268c38.553 0 69.822 31.255 69.822 69.811v302.546c-0.004 38.556-31.27 69.811-69.826 69.811z" />
<glyph unicode="&#xe90c;" glyph-name="symbol6" d="M142.286 682.084c-6.033 0-10.934-4.881-10.934-10.914v-134.881c0-6.033-4.92-10.98-11.017-10.98-6.078 0-10.982 4.949-10.982 10.98v134.881c0 6.033-4.92 10.914-10.951 10.914h-0.132c-6.049 0-10.951-4.881-10.951-10.914v-134.881c0-6.033-4.904-10.98-10.982-10.98-6.097 0-10.999 4.949-10.999 10.98v134.881c0 6.033-4.912 10.914-10.953 10.914h-0.13c-6.051 0-10.924-4.881-10.924-10.914v-134.881c0-6.033-4.931-10.98-10.999-10.98-6.107 0-10.999 4.949-10.999 10.98v134.881c0 6.033-4.92 10.914-10.934 10.914-5.76 0-10.399-4.647-10.399-10.341 0-34.128 0-140.913 0-145.466 0-44.467 14.904-68.615 37.12-79.931 17.953-9.107 28.482-28.329 26.506-48.391l-32.011-326.755c-1.185-12.626 2.927-25.179 11.433-34.521 8.542-9.446 20.624-14.774 33.289-14.774 12.694 0 24.765 5.326 33.262 14.774 8.505 9.345 12.665 21.896 11.441 34.521l-32.001 326.755c-1.956 20.062 8.571 39.285 26.506 48.391 22.233 11.319 37.12 35.464 37.12 79.931 0 4.552 0 111.337 0 145.466 0 5.694-4.637 10.341-10.378 10.341zM994.507 370.328c4.131 0 7.5 3.349 7.5 7.509v291.094c0 7.263-5.9 13.153-13.163 13.153-6.322 0-11.838-4.149-13.558-10.18l-45.607-159.057c-13.333-46.479-5.148-96.51 22.28-136.359 2.663-3.847 7.048-6.161 11.743-6.161l-29.291-299.091c-1.232-12.628 2.917-25.189 11.443-34.561 8.487-9.411 20.579-14.774 33.252-14.774s24.747 5.363 33.252 14.774c8.516 9.371 12.654 21.931 11.431 34.561l-29.282 299.091zM528.563 693.104c-188.372 0-341.102-152.732-341.102-341.123 0-188.356 152.73-341.084 341.102-341.084 188.393 0 341.105 152.73 341.105 341.084 0 188.391-152.712 341.123-341.105 341.123zM528.563 108.469c-134.242 0-243.474 109.233-243.474 243.511s109.233 243.549 243.474 243.549c134.279 0 243.511-109.27 243.511-243.549s-109.233-243.511-243.511-243.511zM528.563 561.233c-115.338 0-209.187-93.857-209.187-209.253 0-115.358 93.849-209.222 209.187-209.222 115.358 0 209.224 93.864 209.224 209.222 0 115.395-93.866 209.253-209.224 209.253z" />
<glyph unicode="&#xe90d;" glyph-name="symbol7" d="M853.938 393.637h-683.928c0 115.795 93.869 209.6 209.6 209.6h58.631v260.764h147.441v-260.699h58.67c115.718 0 209.587-93.805 209.587-209.664zM546.903 310.067v0.335c0 19.261-15.63 34.762-34.929 34.762-19.338 0-34.968-15.823-34.968-35.109 0-19.261 15.63-34.929 34.968-34.929 19.312 0.013 34.929 15.681 34.929 34.942zM546.903 19.666v0.734c0 19.338-15.63 34.671-34.929 34.671-19.338 0-34.968-16.003-34.968-35.405 0-19.261 15.63-34.929 34.968-34.929 19.312 0 34.929 15.668 34.929 34.929zM546.903 164.802v0.798c0 19.273-15.63 34.543-34.929 34.543-19.338 0-34.968-15.939-34.968-35.328 0-19.209 15.63-34.942 34.968-34.942 19.312 0 34.929 15.72 34.929 34.929zM546.903-125.058v0.386c0 19.273-15.63 34.8-34.929 34.8-19.338 0-34.968-15.862-34.968-35.186 0-19.338 15.63-34.942 34.968-34.942 19.312 0 34.929 15.604 34.929 34.942zM922.213-118.26c17.999 7.133 26.599 27.462 19.467 45.332l-0.27 0.747c-7.133 17.934-27.333 26.457-45.203 18.99-18.063-7.068-26.535-27.719-19.338-45.589 5.472-13.724 18.475-22.003 32.406-22.003 4.274-0.013 8.678 0.85 12.939 2.523zM874.010 13.602c17.947 7.068 26.599 27.462 19.479 45.332l-0.27 0.747c-7.197 17.934-27.462 26.586-45.267 19.055-17.986-7.133-26.535-27.796-19.261-45.666 5.394-13.673 18.527-22.003 32.406-22.003 4.249 0 8.652 0.798 12.913 2.536zM822.872 144.396c18.475 5.536 28.942 24.99 23.393 43.465l-0.193 0.669c-5.549 18.527-24.809 28.672-43.401 23.071-18.475-5.472-28.865-25.196-23.277-43.8 4.403-15.141 18.411-24.874 33.333-24.874 3.425 0 6.746 0.399 10.145 1.468zM777.605 277.34c17.934 7.068 26.599 27.462 19.467 45.306l-0.27 0.695c-7.133 17.87-27.397 26.47-45.267 19.106-17.934-7.171-26.47-27.835-19.261-45.769 5.459-13.544 18.527-21.874 32.457-21.874 4.223-0.013 8.678 0.798 12.875 2.536zM716.424-140.662c18.926 3.734 31.26 22.132 27.397 41.057l-0.142 0.669c-3.798 18.939-22.325 31.067-41.006 27.075-19.003-3.734-31.195-22.531-27.333-41.341 3.335-16.66 17.87-28.131 34.131-28.131 2.408-0.142 4.738 0.142 6.952 0.669zM691.473-2.543c19.209 1.931 33.139 19.067 31.273 38.341l-0.064 0.669c-1.88 19.132-18.939 33.139-38.199 30.861-19.209-1.867-33.204-19.325-31.273-38.534 1.802-17.986 16.995-31.453 34.723-31.453 1.146 0 2.343 0 3.541 0.116zM673.217 136.8c18.926 3.747 31.195 22.080 27.397 41.070l-0.142 0.669c-3.656 18.797-22.132 30.809-40.941 26.934-18.926-3.734-31.131-22.402-27.333-41.341 3.347-16.66 17.883-28.067 34.131-28.067 2.356 0 4.674 0.206 6.888 0.734zM651.677 275.473c18.939 3.721 31.273 22.132 27.397 41.057l-0.129 0.669c-3.811 18.9-22.544 30.964-41.019 26.998-19.003-3.669-31.131-22.363-27.32-41.328 3.399-16.608 17.934-28.080 34.118-28.080 2.42 0 4.751 0.206 6.952 0.682zM147.080-98.794l0.296 0.669c7.171 17.87-1.609 37.852-19.595 44.92-17.703 7.21-38.367-1.725-45.46-19.724-7.107-17.87 1.429-38.199 19.428-45.332 4.236-1.674 8.703-2.536 12.926-2.536 13.905 0 26.934 8.266 32.406 22.003zM195.27 33.069l0.27 0.669c7.171 17.87-1.571 37.864-19.505 44.997-17.767 7.145-38.367-1.802-45.538-19.801-7.107-17.87 1.493-38.264 19.428-45.332 4.236-1.738 8.665-2.536 12.9-2.536 13.943 0 27.050 8.33 32.444 22.003zM244.58 167.802l0.193 0.734c5.6 18.527-5.060 37.607-23.471 43.079-18.797 5.858-38.096-5.201-43.568-23.741-5.536-18.475 4.905-37.929 23.393-43.465 3.438-1.069 6.772-1.468 10.029-1.468 15.050-0.013 28.981 9.72 33.423 24.861zM291.676 296.678l0.27 0.734c7.171 17.934-1.571 37.864-19.531 45.036-17.6 7.236-38.264-1.841-45.538-19.801-7.107-17.844 1.596-38.173 19.467-45.306 4.236-1.738 8.665-2.536 12.965-2.536 13.866-0.013 26.895 8.33 32.367 21.874zM348.608-113.201l0.206 0.682c3.837 18.926-8.536 36.925-27.5 40.723-18.771 3.94-37.272-8.806-41.173-27.719-3.824-18.874 8.472-37.337 27.436-41.070 2.202-0.592 4.506-0.734 6.901-0.734 16.235-0.154 30.796 11.317 34.131 28.118zM370.739 28.794l0.064 0.682c1.957 19.196-12.102 35.933-31.337 37.852-19.132 2.279-36.268-12.398-38.238-31.53-1.931-19.196 12.064-36.319 31.26-38.341 1.172-0.129 2.369-0.129 3.528-0.129 17.728 0.013 32.856 13.415 34.723 31.466zM391.751 164.133l0.129 0.682c3.824 18.926-8.536 36.989-27.436 40.658-18.501 4.197-37.337-8.806-41.173-27.655-3.798-18.939 8.472-37.401 27.372-41.135 2.266-0.463 4.596-0.669 6.965-0.669 16.338 0.051 30.796 11.458 34.144 28.118zM413.341 302.87l0.206 0.734c3.798 18.836-8.536 36.937-27.539 40.697-18.63 3.875-37.401-8.896-41.173-27.758-3.798-18.939 8.472-37.337 27.462-41.057 2.163-0.476 4.506-0.682 6.901-0.682 16.248-0.013 30.783 11.458 34.144 28.067z" />
<glyph unicode="&#xe90e;" glyph-name="clock" d="M512.022 863.956c-282.789 0-512.022-229.206-512.022-511.951 0-282.772 229.233-512.005 512.022-512.005 282.799 0 511.978 229.233 511.978 512.005 0 282.745-229.178 511.951-511.978 511.951zM512.022-4.564c-196.623 0-356.613 159.918-356.613 356.569 0 196.6 159.99 356.603 356.613 356.603 196.627 0 356.613-160.003 356.613-356.603 0-196.651-159.986-356.569-356.613-356.569zM556.097 369.866v248.476c0 24.322-19.728 44.074-44.098 44.074s-44.122-19.725-44.122-44.074v-284.226l136.8-141.173c8.629-8.939 20.186-13.4 31.698-13.4 11.014 0 22.145 4.161 30.674 12.424 17.523 16.95 17.95 44.873 1.024 62.369l-111.976 115.53z" />
<glyph unicode="&#xe90f;" glyph-name="symbol13" d="M991.844 748.361h-192.778c-17.742 0-32.103-14.379-32.103-32.121v-132.44h-160.639c-17.742 0-32.121-14.379-32.121-32.121v-154.33h-144.553c-17.76 0-32.138-14.379-32.138-32.121v-168.657h-156.596c-17.742 0-32.121-14.379-32.121-32.138v-144.535h-176.674c-17.742 0-32.121-14.396-32.121-32.156 0-17.742 14.396-32.121 32.121-32.121h208.812c17.76 0 32.138 14.379 32.138 32.121v144.553h156.596c17.742 0 32.121 14.396 32.121 32.138v168.674h144.553c17.742 0 32.138 14.361 32.138 32.121v154.313h160.605c17.777 0 32.156 14.379 32.156 32.138v132.423h160.622c17.742 0 32.138 14.379 32.138 32.138-0.017 17.742-14.413 32.121-32.156 32.121z" />
<glyph unicode="&#xe910;" glyph-name="symbol5" d="M921.6 659.2h-51.2v-768h51.2c56.32 0 102.4 46.080 102.4 102.4v563.2c0 56.32-46.080 102.4-102.4 102.4zM0 556.8v-563.2c0-56.32 46.080-102.4 102.4-102.4h51.2v768h-51.2c-56.32 0-102.4-46.080-102.4-102.4zM686.080 766.382c-34.857 16.2-90.542 46.418-174.080 46.418s-139.223-30.218-174.080-46.418v-107.182h-112.64v-768h573.44v768h-112.64v107.182zM624.64 659.2h-225.28v68.383c27.32 11.756 66.437 23.777 112.64 23.777s85.32-12.022 112.64-23.777v-68.383z" />
<glyph unicode="&#xe911;" glyph-name="symbol11" d="M580.099 201.010c-39.213-63.882-116.549-52.661-141.193-2.233-65.022-70.631-118.051 2.327-118.051 2.327 11.9-94.235 92.298-167.053 189.776-167.053 99.032 0 180.477 75.226 190.261 171.711 0-0.003-87.166-50.693-120.793-4.752v0zM510.899-12.704c-125.153 0-226.598 101.414-226.598 226.575 0 125.113 101.431 226.567 226.598 226.567 125.113 0 226.56-101.455 226.56-226.567-0.002-125.161-101.447-226.575-226.56-226.575v0zM110.182 571.442v-704.628c0-14.812 12.51-26.814 28.019-26.814h747.615c15.47 0 28.003 12 28.003 26.814v704.628h-803.637zM390.747 703.266c-22.175 0-40.174 18.001-40.174 40.176 0 22.212 18.001 40.183 40.174 40.183 22.189 0 40.191-17.97 40.191-40.183 0.016-22.175-17.987-40.176-40.191-40.176v0zM258.062 703.266c-22.189 0-40.174 18.001-40.174 40.176 0 22.212 17.987 40.183 40.174 40.183 22.198 0 40.184-17.97 40.184-40.183 0.015-22.175-17.97-40.176-40.184-40.176v0zM885.815 864h-747.615c-15.509 0-28.019-12.946-28.019-28.932v-212.16h803.637v212.16c0 15.986-12.533 28.932-28.003 28.932v0z" />
<glyph unicode="&#xe912;" glyph-name="moon" d="M138.481-8.137c-70.352 70.352-116.246 155.892-137.704 246.065-6.145 25.829 25.599 43.268 44.326 24.448 0.23-0.232 0.46-0.462 0.69-0.692 156.529-156.529 412.188-153.511 564.895 9.053 143.968 153.263 142.078 391.2-4.119 542.337-1.844 1.905-3.701 3.788-5.574 5.649-18.778 18.656-1.227 50.256 24.526 44.136 89.372-21.239 174.199-66.478 244.208-135.741 204.695-202.517 205.848-530.859 2.518-734.743-202.441-202.995-531.111-203.163-733.765-0.51z" />
<glyph unicode="&#xe913;" glyph-name="symbol9" d="M924.399 556.189h-79.841l-290.358 290.358c-11.253 11.255-26.242 17.452-42.2 17.452s-30.947-6.197-42.2-17.452l-290.358-290.358h-79.841c-26.325 0-47.743-21.417-47.743-47.743v-620.703c0-26.325 21.417-47.743 47.743-47.743h824.797c26.325 0 47.743 21.417 47.743 47.743v620.703c0 26.325-21.417 47.743-47.743 47.743zM444.339 719.809c12.786-24.344 38.309-40.997 67.661-40.997s54.876 16.653 67.661 40.997l163.62-163.62h-462.562l163.62 163.62zM489.344 35.658h-72.989l-48.256 173.679-48.254-173.682h-72.985l-76.086 324.876h81.631l36.912-176.083 48.165 176.083h61.008l48.562-176.236 36.731 176.236h81.423l-75.864-324.874zM853.176 244.884l-3.347-10.048h-77.477v10.601c0 17.226-3.924 30.31-11.661 38.889-7.453 8.264-19.892 12.454-36.97 12.454-14.743 0-26.123-5.825-34.79-17.806-9.322-12.879-14.048-29.82-14.048-50.354v-60.634c0-20.716 4.956-37.731 14.729-50.569 9.226-12.12 21.408-18.009 37.242-18.009 15.805 0 27.352 3.965 34.32 11.781 7.283 8.174 10.974 21.133 10.974 38.519v10.601h77.27l3.344-10.048 0.029-1.626c0.604-35.645-10.597-64.484-33.286-85.718-22.444-20.995-53.615-31.642-92.652-31.642-39.376 0-71.898 12.941-96.668 38.466-24.683 25.433-37.197 58.442-37.197 98.109v60.275c0 39.464 12.196 72.433 36.251 97.992 24.225 25.741 56.012 38.794 94.483 38.794 40.087 0 72.104-10.649 95.156-31.651 23.382-21.31 34.931-50.495 34.327-86.747l-0.029-1.633z" />
<glyph unicode="&#xe914;" glyph-name="sun" d="M477.867 863.997h68.267v-204.8h-68.267v204.8zM768 351.997c0-141.385-114.615-256-256-256s-256 114.615-256 256c0 141.385 114.615 256 256 256s256-114.615 256-256zM477.867 44.797h68.267v-204.8h-68.267v204.8zM1024 386.131v-68.267h-204.8v68.267h204.8zM204.8 386.131v-68.267h-204.8v68.267h204.8zM850.255 737.864l48.227-48.316-144.948-144.682-48.227 48.316 144.948 144.682zM270.462 159.134l48.227-48.316-144.948-144.682-48.227 48.316 144.948 144.682zM897.863 13.743l-48.316-48.227-144.682 144.948 48.316 48.227 144.682-144.948zM319.133 593.536l-48.316-48.227-144.682 144.948 48.316 48.227 144.682-144.948z" />
<glyph unicode="&#xe915;" glyph-name="esc" d="M871.037-160v855.666h-443.482v168.334l-312.354-257.792 312.354-257.818v168.124h264.356v-497.388h-223.343v-179.126h402.469z" />
<glyph unicode="&#xe916;" glyph-name="off" d="M702.257 812.392v-123.534c122.319-66.418 205.406-196.009 205.406-344.585 0-216.304-175.881-392.090-392.018-392.090-216.211 0-392.092 175.786-392.092 392.090 0 148.575 83.087 278.167 205.312 344.68v123.439c-185.732-74.431-317.373-256.274-317.373-468.119 0-277.976 226.176-504.273 504.177-504.273 277.88 0 504.083 226.273 504.083 504.273-0.027 211.845-131.739 393.688-317.494 468.119zM581.988 864h-132.835v-512.453h132.835z" />
<glyph unicode="&#xe917;" glyph-name="schedule" d="M947.126 340.863l-90.335 90.338 76.819 76.874 90.39-90.335-76.874-76.877zM689.030 82.718v0l-168.629-168.629-0.334 0.334-163.508-74.423 73.685 164.26-0.334 0.334 385.92 385.908 25.044-25.041-293.686-293.635 24.492-24.547 293.665 293.659 40.847-40.799-217.294-217.291zM547.408-7.669l-33.955 4.842-5.197 34.328-35.96-35.966-32.183-71.626 71.337 32.477 35.957 35.945zM50.068 537.718l-43.095 9.174c4.897 23.087 12.202 45.271 21.613 66.374l40.259-17.936c-8.131-18.3-14.496-37.519-18.776-57.612zM139.763 692.834l-29.546 32.799c-17.305-15.636-32.914-33.035-46.648-51.89l35.681-25.951c11.932 16.398 25.475 31.515 40.514 45.043zM244.096 753.186l-13.625 41.924c-22.387-7.287-43.745-16.844-63.741-28.457l22.068-38.184c17.369 10.063 35.872 18.379 55.297 24.717zM312.181 477.351h-190.099v-43.996h234.099v281.49h-44v-237.494zM334.173 755.82c27.872 0 50.446 22.593 50.446 50.462 0 27.884-22.575 50.48-50.446 50.48s-50.465-22.596-50.465-50.48c0-27.869 22.593-50.462 50.465-50.462zM0.001 477.415c0-183.983 149.698-333.663 333.727-333.663 184.035 0 333.714 149.68 333.714 333.663 0 147.101-95.747 272.143-228.095 316.412l-13.862-41.748c114.851-38.439 197.957-146.97 197.957-274.664 0-159.706-129.957-289.648-289.715-289.648-159.691 0-289.648 129.942-289.648 289.648h-44.078z" />
<glyph unicode="&#xe918;" glyph-name="minus" d="M0 478.688h1024v-256.282h-1024v256.282z" />
<glyph unicode="&#xe919;" glyph-name="copy" d="M484.016 798.353l-17.143 17.124h-466.873v-975.477h697.822v744.548l-17.163 17.124-196.642 196.681zM639.22-101.378h-580.598v858.253h331.573c87.077 0 45.093-206.439 45.093-206.439s201.346 49 203.932-43.305v-608.509zM1006.848 673.122l-190.267 190.306h-296.334l58.622-58.622h167.779c-0.068-0.72-0.068-1.283-0.068-2.003 26.123 0 39.107-21.186 44.724-49.039 10.243-53.762-5.384-130.674-5.384-130.674s0.307 0.068 0.836 0.171c-0.307-1.32-0.447-2.118-0.447-2.118s157.166 38.232 177.439-25.093c0.17-0.72 0.389-1.44 0.525-2.156 0.171-0.679 0.307-1.44 0.447-2.118 0.389-2.156 0.604-4.412 0.679-6.842v-535.563h-205.991v-58.641h264.594v665.284l-17.143 17.124z" />
<glyph unicode="&#xe91a;" glyph-name="plus" d="M1024 219.635h-383.884v-383.884h-256.232v383.884h-383.884v256.283h383.884v383.833h256.232v-383.833h383.884v-256.283z" />
<glyph unicode="&#xe91b;" glyph-name="menu" d="M379.751 864h256v-256h-256v256zM379.751 480h256v-256h-256v256zM379.751 96h256v-256h-256v256z" />
<glyph unicode="&#xe91c;" glyph-name="menu-2" d="M68.267 864h119.467c37.703 0 68.267-30.564 68.267-68.267v-119.467c0-37.703-30.564-68.267-68.267-68.267h-119.467c-37.703 0-68.267 30.564-68.267 68.267v119.467c0 37.703 30.564 68.267 68.267 68.267zM452.264 864h119.467c37.703 0 68.267-30.564 68.267-68.267v-119.467c0-37.703-30.564-68.267-68.267-68.267h-119.467c-37.703 0-68.267 30.564-68.267 68.267v119.467c0 37.703 30.564 68.267 68.267 68.267zM836.267 864h119.467c37.703 0 68.267-30.564 68.267-68.267v-119.467c0-37.703-30.564-68.267-68.267-68.267h-119.467c-37.703 0-68.267 30.564-68.267 68.267v119.467c0 37.703 30.564 68.267 68.267 68.267zM68.267 479.997h119.467c37.703 0 68.267-30.564 68.267-68.267v-119.467c0-37.703-30.564-68.267-68.267-68.267h-119.467c-37.703 0-68.267 30.564-68.267 68.267v119.467c0 37.703 30.564 68.267 68.267 68.267zM452.264 479.997h119.467c37.703 0 68.267-30.564 68.267-68.267v-119.467c0-37.703-30.564-68.267-68.267-68.267h-119.467c-37.703 0-68.267 30.564-68.267 68.267v119.467c0 37.703 30.564 68.267 68.267 68.267zM836.267 479.997h119.467c37.703 0 68.267-30.564 68.267-68.267v-119.467c0-37.703-30.564-68.267-68.267-68.267h-119.467c-37.703 0-68.267 30.564-68.267 68.267v119.467c0 37.703 30.564 68.267 68.267 68.267zM68.267 96h119.467c37.703 0 68.267-30.564 68.267-68.267v-119.467c0-37.703-30.564-68.267-68.267-68.267h-119.467c-37.703 0-68.267 30.564-68.267 68.267v119.467c0 37.703 30.564 68.267 68.267 68.267zM452.264 96h119.467c37.703 0 68.267-30.564 68.267-68.267v-119.467c0-37.703-30.564-68.267-68.267-68.267h-119.467c-37.703 0-68.267 30.564-68.267 68.267v119.467c0 37.703 30.564 68.267 68.267 68.267zM836.267 96h119.467c37.703 0 68.267-30.564 68.267-68.267v-119.467c0-37.703-30.564-68.267-68.267-68.267h-119.467c-37.703 0-68.267 30.564-68.267 68.267v119.467c0 37.703 30.564 68.267 68.267 68.267z" />
</font>
</defs>
</svg>
